<?xml version="1.0" standalone="no"?>
<!DOCTYPE svg PUBLIC "-//W3C//DTD SVG 20010904//EN"
 "http://www.w3.org/TR/2001/REC-SVG-20010904/DTD/svg10.dtd">
<svg version="1.0" xmlns="http://www.w3.org/2000/svg"
 width="400.000000pt" height="400.000000pt" viewBox="0 0 400.000000 400.000000"
 preserveAspectRatio="xMidYMid meet">
<metadata>
Created by potrace 1.14, written by Peter Selinger 2001-2017
</metadata>
<g transform="translate(0.000000,400.000000) scale(0.100000,-0.100000)"
fill="#000000" stroke="none">
<path d="M2257 3895 c10 -13 22 -25 27 -25 5 0 -1 11 -14 25 -30 32 -36 32
-13 0z"/>
<path d="M1950 3884 c-36 -7 -85 -13 -110 -14 -33 0 -41 -3 -30 -10 11 -7 1
-10 -35 -11 -66 -3 -62 -2 -120 -24 -27 -11 -59 -28 -70 -38 -11 -10 -29 -20
-42 -23 -12 -3 -24 -12 -27 -19 -3 -8 -25 -23 -50 -34 -52 -22 -156 -116 -156
-139 0 -8 -19 -36 -42 -62 -70 -77 -90 -107 -150 -224 -75 -144 -82 -166 -84
-261 -1 -44 -5 -87 -8 -96 -10 -23 -23 -158 -16 -168 3 -5 5 -64 5 -129 0 -95
3 -118 13 -110 18 16 16 -22 -5 -63 -22 -43 -22 -151 -1 -239 l16 -65 1 60 c1
70 28 194 47 214 19 21 64 6 64 -22 0 -16 3 -18 9 -9 6 10 10 4 16 -20 4 -18
9 -35 10 -38 2 -3 6 -15 10 -27 4 -13 11 -20 16 -17 5 3 9 -7 9 -23 l-1 -28
-16 30 c-21 40 -18 38 -42 26 -12 -7 -23 -26 -27 -47 -4 -20 -15 -45 -24 -54
-12 -12 -17 -32 -16 -61 1 -40 4 -44 28 -47 24 -3 27 1 30 30 2 28 7 33 28 33
21 0 27 7 35 43 6 24 14 40 18 35 4 -4 5 12 2 36 -3 27 -1 40 5 36 6 -3 10
-15 10 -26 0 -10 5 -19 10 -19 6 0 10 -8 10 -19 0 -12 9 -20 28 -24 35 -7 46
5 45 48 -1 19 3 37 8 40 4 3 5 13 2 22 -5 12 -3 14 7 8 9 -5 11 -4 6 3 -4 7
-2 38 4 69 17 83 23 133 22 171 -1 28 10 43 64 96 35 35 64 68 64 74 0 7 5 12
11 12 6 0 9 14 6 35 -3 22 0 39 10 46 11 10 11 14 1 20 -7 4 -15 3 -19 -2 -4
-7 -9 -4 -12 5 -4 9 -3 15 1 15 22 -4 33 3 29 15 -3 8 1 20 9 26 17 15 18 37
2 42 -8 3 -1 22 21 56 18 28 34 58 35 67 3 22 44 57 51 44 5 -6 11 -4 19 7 9
12 23 15 49 12 20 -2 38 1 40 7 3 6 12 3 24 -7 23 -21 33 -23 33 -5 0 14 67
16 89 3 6 -4 11 -3 11 3 0 17 35 17 51 -1 9 -10 27 -16 45 -14 16 1 35 -2 41
-7 7 -5 24 -7 38 -5 14 3 25 1 25 -3 0 -5 8 -9 18 -9 20 -1 62 -33 62 -49 0
-6 7 -11 17 -11 9 0 13 -3 10 -6 -3 -4 -2 -15 4 -26 8 -15 17 -18 37 -14 17 4
22 3 14 -2 -10 -7 -4 -14 23 -26 20 -10 46 -27 56 -37 11 -11 25 -17 31 -13 8
5 9 2 5 -9 -7 -19 9 -23 17 -4 3 6 3 0 0 -15 -5 -24 -3 -28 17 -29 13 -1 31
-2 39 -3 8 -1 29 -9 45 -18 37 -20 145 -31 145 -14 0 6 5 4 10 -4 8 -13 10
-12 10 4 0 11 5 16 14 13 7 -3 18 -1 23 4 6 6 16 2 28 -11 23 -26 39 -26 23
-1 -7 11 -16 17 -22 14 -5 -4 -7 1 -3 11 4 10 7 21 7 26 0 15 32 21 47 8 11
-9 16 -9 24 3 5 8 9 10 9 5 0 -5 8 -2 17 5 9 8 14 9 10 2 -5 -7 4 -14 23 -18
22 -5 32 -14 36 -33 3 -15 10 -40 14 -57 10 -32 23 -138 22 -170 -1 -10 2 -24
7 -30 12 -16 35 -126 36 -170 0 -22 -3 -107 -6 -190 -5 -104 -4 -133 2 -96 10
56 14 66 30 66 8 0 10 5 8 23 -6 45 46 236 73 267 4 5 8 24 8 43 0 19 4 31 10
27 6 -4 10 9 10 32 0 48 10 84 20 78 14 -8 23 34 22 102 0 72 -10 123 -23 123
-5 0 -9 11 -9 24 0 14 -4 28 -10 31 -16 10 -12 35 6 35 10 0 14 -6 11 -14 -4
-10 -1 -13 8 -9 8 3 12 9 9 14 -3 5 6 13 19 18 13 5 27 17 31 27 7 19 -13 84
-27 84 -5 0 -6 7 -3 16 3 8 2 12 -4 9 -5 -3 -14 11 -20 32 -6 21 -24 54 -41
73 -30 35 -30 35 -19 6 6 -16 8 -32 4 -35 -7 -7 -54 49 -54 65 0 6 -11 23 -24
37 -13 14 -22 28 -20 30 2 2 -11 12 -29 22 -32 17 -34 22 -45 98 -7 47 -19 88
-28 97 -14 14 -14 13 -6 -10 11 -30 7 -79 -7 -93 -8 -8 -11 -6 -11 5 0 9 -6
19 -12 22 -10 5 -10 7 0 12 6 3 12 10 12 15 0 6 -7 6 -17 0 -15 -8 -18 -5 -17
20 0 15 7 35 14 44 10 12 10 15 -2 15 -7 0 -20 -9 -28 -20 -10 -14 -17 -16
-26 -9 -8 7 -14 7 -19 -1 -9 -14 -45 6 -45 25 0 9 -6 12 -17 8 -11 -4 -14 -3
-9 5 4 7 3 12 -2 12 -4 0 -30 21 -57 48 -26 26 -45 41 -41 35 9 -15 2 -16 -22
-4 -9 5 -25 12 -34 15 -22 6 -24 26 -4 26 8 0 18 5 22 12 5 8 2 9 -12 3 -10
-4 -39 -9 -64 -10 -34 -1 -52 4 -73 22 -16 12 -37 23 -48 23 -10 0 -28 9 -39
20 -12 12 -20 15 -20 8 0 -7 -10 -1 -21 15 -11 15 -24 25 -28 23 -7 -5 -34 1
-135 28 -66 18 -100 18 -196 0z m-440 -418 c0 -2 -8 -10 -17 -17 -16 -13 -17
-12 -4 4 13 16 21 21 21 13z m-44 -50 c0 -13 -3 -22 -5 -20 -2 2 -10 -1 -17
-7 -10 -8 -13 -6 -11 10 1 12 7 21 15 21 7 0 10 5 7 10 -3 6 -2 10 3 10 6 0 9
-11 8 -24z m-193 -1 c-3 -9 -8 -14 -10 -11 -3 3 -2 9 2 15 9 16 15 13 8 -4z
m128 -28 c-10 -9 -11 -8 -5 6 3 10 9 15 12 12 3 -3 0 -11 -7 -18z m7 -47 c-22
-34 -40 -34 -23 1 9 16 20 27 25 24 6 -4 5 -14 -2 -25z m62 7 c0 -2 -23 -25
-52 -53 -47 -44 -50 -45 -32 -16 20 32 84 85 84 69z m-260 -131 c0 -2 -8 -10
-17 -17 -16 -13 -17 -12 -4 4 13 16 21 21 21 13z m20 -55 c-5 -11 -15 -23 -21
-27 -6 -3 -3 5 6 20 20 30 30 35 15 7z m1937 -33 c-3 -8 -6 -5 -6 6 -1 11 2
17 5 13 3 -3 4 -12 1 -19z m27 -79 c-2 -4 1 -9 8 -11 7 -3 5 -7 -6 -11 -9 -4
-15 -3 -11 2 3 5 1 12 -5 16 -5 3 -10 -1 -10 -9 0 -11 -9 -16 -27 -15 l-28 1
25 8 25 8 -25 1 c-20 1 -22 3 -10 11 17 11 71 10 64 -1z m-1997 -651 c-3 -8
-6 -5 -6 6 -1 11 2 17 5 13 3 -3 4 -12 1 -19z m18 -38 c-3 -5 -1 -11 5 -15 13
-8 13 -25 -1 -25 -5 0 -8 4 -4 9 3 5 1 12 -5 16 -5 3 -10 13 -10 21 0 8 5 12
10 9 6 -4 8 -10 5 -15z"/>
<path d="M3172 2650 c0 -14 2 -19 5 -12 2 6 2 18 0 25 -3 6 -5 1 -5 -13z"/>
<path d="M1915 2500 c-3 -6 1 -7 9 -4 18 7 21 14 7 14 -6 0 -13 -4 -16 -10z"/>
<path d="M2050 2494 c0 -5 -36 -9 -80 -9 -58 0 -83 -4 -89 -14 -5 -8 -14 -10
-22 -5 -12 6 -12 5 -1 -8 10 -13 8 -15 -15 -14 -14 1 -28 -5 -31 -13 -3 -10 2
-11 19 -6 13 4 21 4 16 0 -10 -12 -87 -12 -87 -1 0 6 -6 2 -13 -9 -9 -12 -16
-14 -21 -7 -9 14 -38 3 -30 -12 3 -6 -2 -2 -10 8 -9 11 -16 15 -16 9 0 -7 7
-19 16 -27 17 -18 12 -22 -36 -29 -27 -4 -17 -11 33 -21 45 -10 20 -26 -41
-26 -41 0 -53 -3 -42 -10 8 -5 27 -10 42 -10 15 0 30 -4 33 -10 3 -5 22 -10
41 -10 19 0 56 -10 82 -22 26 -13 52 -23 57 -24 6 0 17 -4 25 -7 8 -3 33 -11
55 -16 22 -6 48 -16 58 -23 15 -11 12 -13 -20 -12 -21 1 -51 4 -68 8 -30 7
-29 7 4 -9 18 -8 46 -15 61 -15 36 0 61 -10 54 -21 -9 -14 144 7 163 23 7 6
20 7 29 4 20 -8 47 12 37 27 -4 6 0 8 10 4 19 -7 54 32 64 72 3 14 17 36 30
48 12 12 23 31 23 42 0 10 6 22 13 24 7 3 5 6 -5 6 -10 1 -18 9 -18 18 0 9 -3
13 -7 9 -5 -4 -8 -12 -8 -17 0 -5 -4 -8 -10 -6 -5 1 -9 7 -9 14 1 6 -5 9 -12
6 -8 -3 -14 0 -14 7 0 6 -4 9 -9 5 -12 -7 -61 15 -61 28 0 5 -7 6 -16 3 -9 -4
-22 -2 -29 4 -7 6 -24 13 -36 15 -65 12 -85 18 -96 27 -7 6 -13 7 -13 2z
m-154 -222 c6 -4 13 -15 17 -24 5 -15 3 -16 -34 -3 -70 25 -79 34 -34 35 22 0
45 -4 51 -8z"/>
<path d="M2483 2426 c-13 -6 -23 -14 -23 -19 0 -4 5 -5 11 -1 6 3 4 -4 -4 -17
-18 -28 -15 -72 6 -94 12 -11 15 -33 14 -86 -2 -46 2 -77 11 -90 7 -10 11 -23
7 -28 -3 -5 -1 -12 4 -16 6 -3 8 -12 4 -20 -3 -9 1 -15 11 -15 10 0 16 -9 16
-22 0 -18 2 -20 9 -8 6 8 8 28 5 45 -2 16 -2 25 1 19 5 -9 14 -9 37 0 24 8 32
8 35 -1 6 -18 30 -16 37 3 5 12 2 15 -11 10 -12 -5 -15 -4 -8 3 7 7 30 4 71
-9 38 -11 90 -18 135 -18 73 0 73 0 39 13 l-35 14 30 0 c25 0 65 5 85 10 3 0
6 20 6 44 1 23 4 67 9 98 7 56 7 57 -23 75 -17 10 -28 22 -25 27 3 6 1 7 -4 4
-11 -7 -47 26 -38 35 6 5 -67 1 -99 -7 -11 -2 -25 0 -32 6 -7 5 -45 11 -86 12
-40 1 -76 6 -80 12 -5 7 -13 7 -25 -1 -23 -13 -53 -7 -53 11 0 20 -12 23 -37
11z m347 -336 c-18 -12 -68 -12 -95 0 -14 6 0 9 45 9 45 1 60 -2 50 -9z"/>
<path d="M1120 2418 c0 -19 29 -88 30 -70 0 7 5 10 10 7 6 -3 0 11 -12 32 -28
49 -28 49 -28 31z"/>
<path d="M0 1383 c0 -508 3 -923 8 -923 4 0 18 9 32 20 14 11 28 20 33 20 4 0
33 18 65 39 79 54 132 82 132 71 0 -10 84 -52 97 -48 15 4 82 -26 87 -39 6
-16 -28 -53 -48 -53 -7 0 -19 -7 -26 -15 -7 -8 -21 -15 -31 -15 -11 0 -19 -4
-19 -10 0 -5 -5 -10 -11 -10 -6 0 -30 -13 -54 -30 -24 -16 -47 -30 -52 -30 -4
0 -26 -14 -47 -30 -21 -16 -43 -27 -47 -24 -5 3 -9 0 -9 -5 0 -6 -7 -11 -16
-11 -16 0 -97 -60 -90 -67 2 -2 24 10 49 27 25 16 48 30 52 30 4 0 62 31 129
69 66 38 152 84 189 103 l69 33 23 -27 c13 -16 31 -28 39 -28 8 0 20 -9 26
-20 6 -11 18 -20 26 -20 8 0 13 -4 9 -9 -3 -5 4 -13 16 -16 11 -4 18 -10 14
-13 -3 -3 9 -13 27 -22 18 -9 32 -22 30 -28 -1 -7 7 -12 18 -12 11 0 20 -3 20
-8 0 -4 23 -22 50 -40 28 -18 50 -37 50 -42 0 -6 9 -10 19 -10 12 0 18 -7 17
-18 0 -10 6 -17 17 -17 10 0 24 -8 31 -18 7 -9 18 -17 25 -17 6 0 11 -8 11
-17 0 -15 2 -16 10 -3 8 13 10 12 10 -3 0 -10 4 -16 8 -13 5 3 15 -6 22 -19 7
-13 17 -22 22 -19 4 3 8 1 8 -4 0 -5 9 -12 21 -15 12 -3 18 -10 15 -16 -5 -7
184 -10 586 -10 541 0 591 1 571 16 -24 16 -33 40 -10 27 8 -5 8 -2 -2 9 -7 9
-10 17 -5 17 5 0 1 5 -8 11 -10 5 -18 17 -18 24 0 8 -5 15 -10 15 -6 0 -4 -14
4 -35 11 -26 12 -36 3 -41 -7 -4 -9 -4 -5 1 4 4 0 21 -8 36 -11 22 -12 34 -4
49 8 16 8 20 -4 20 -15 0 -16 16 -1 40 7 12 6 13 -6 3 -17 -13 -30 -7 -47 22
-10 17 -11 13 -7 -25 3 -27 2 -36 -3 -22 -4 13 -11 23 -17 23 -5 -1 -10 2 -10
7 0 16 -18 33 -30 28 -7 -2 -25 2 -40 10 -15 8 -33 14 -39 13 -41 -5 -78 4
-93 21 -10 11 -25 20 -34 20 -10 0 -20 6 -22 13 -4 9 -6 9 -6 0 -1 -7 -8 -10
-16 -7 -8 4 -13 10 -10 14 7 11 -55 31 -69 23 -6 -4 -5 1 3 10 7 9 9 17 4 17
-6 0 -23 11 -39 25 -15 13 -30 22 -33 20 -2 -3 -11 1 -19 8 -13 9 -14 9 -8 0
4 -8 2 -13 -5 -13 -6 0 -9 8 -6 20 4 15 1 20 -11 18 -10 -2 -16 3 -14 11 2 10
-5 12 -27 9 -27 -4 -29 -2 -25 26 2 16 9 33 16 38 8 5 9 8 2 8 -6 0 -18 -10
-26 -22 -14 -21 -14 -21 -14 7 1 17 -5 30 -14 32 -13 4 -13 3 0 -7 12 -10 11
-11 -7 -7 -13 3 -23 1 -23 -5 0 -5 -5 -6 -10 -3 -6 4 -8 11 -5 16 4 5 -2 9
-11 9 -15 0 -15 3 4 20 25 24 28 35 8 27 -8 -3 -17 -1 -20 6 -2 7 -5 3 -5 -8
-1 -17 -3 -17 -11 -5 -6 9 -10 10 -10 3 0 -6 -9 -11 -19 -10 -13 1 -17 5 -11
12 5 7 -6 10 -33 9 -23 -1 -50 3 -59 8 -14 7 -18 5 -18 -8 0 -10 -3 -14 -7
-10 -15 14 -10 37 10 51 24 17 6 21 -23 5 -15 -8 -17 -16 -11 -33 6 -15 4 -25
-7 -33 -12 -9 -12 -13 -2 -19 8 -5 11 -4 6 3 -3 5 0 12 6 15 18 6 50 -12 43
-24 -4 -5 -1 -9 5 -9 6 0 8 -5 4 -11 -5 -9 1 -10 22 -5 l29 6 -25 -16 c-24
-14 -24 -15 -3 -11 13 3 26 1 29 -4 8 -14 -43 -59 -67 -59 -11 0 -22 -7 -25
-15 -6 -14 -8 -13 -20 2 -12 17 -13 17 -14 1 0 -15 -4 -16 -24 -7 -19 9 -22
14 -13 24 7 7 15 11 20 8 4 -2 6 1 5 8 -2 6 3 14 10 16 8 3 10 -1 5 -14 -6
-16 -5 -17 12 -3 17 14 18 13 12 -3 -6 -16 -4 -16 23 -2 31 16 37 29 20 40 -5
3 -7 0 -4 -8 7 -20 -22 -29 -36 -11 -18 21 -33 17 -63 -14 -27 -29 -29 -69 -2
-58 8 3 10 -4 7 -21 -3 -18 -1 -24 6 -19 12 7 10 -51 -3 -89 -6 -18 -5 -18 7
-4 11 14 15 14 26 3 7 -8 10 -15 7 -15 -3 -1 -9 -3 -15 -4 -5 -1 -13 -3 -17
-4 -5 -1 -3 -5 4 -9 9 -5 9 -18 0 -50 -9 -34 -15 -42 -35 -42 -13 0 -32 -5
-43 -11 -16 -8 -25 -7 -38 5 -10 9 -21 13 -24 9 -4 -3 -20 8 -36 25 -16 16
-32 28 -35 24 -3 -3 -6 0 -6 7 0 7 -5 9 -10 6 -6 -3 -10 -1 -10 4 0 13 -32 51
-43 51 -4 0 -22 14 -38 32 -17 17 -24 28 -15 25 26 -10 18 7 -9 20 -14 6 -25
8 -25 4 0 -4 -6 -8 -14 -8 -8 0 -12 6 -9 13 3 9 -2 12 -14 10 -10 -2 -27 0
-38 5 -19 7 -19 8 2 8 12 1 25 6 29 13 4 6 3 8 -3 5 -5 -3 -21 0 -36 8 -15 8
-27 11 -27 7 0 -3 -7 3 -15 15 -8 12 -12 30 -9 40 5 14 4 15 -4 4 -12 -16 -57
-27 -47 -11 9 14 -8 12 -24 -2 -11 -10 -13 -10 -7 0 4 7 2 12 -6 12 -9 0 -9 3
2 10 12 8 12 10 -5 11 l-20 0 20 10 c17 8 17 9 -7 6 -20 -3 -25 0 -21 11 5 11
2 12 -13 5 -13 -7 -28 -6 -48 2 -20 8 -25 14 -15 18 9 3 6 6 -8 6 -12 1 -28 7
-35 14 -7 7 -26 18 -41 25 -15 6 -30 18 -33 26 -3 8 -13 12 -23 9 -10 -3 -25
2 -32 9 -7 8 -23 13 -36 10 -14 -3 -25 1 -29 11 -4 12 -11 13 -34 4 -26 -10
-32 -8 -44 8 -21 29 -39 100 -34 135 l5 30 -23 -21 -23 -22 -11 28 c-6 16 -13
52 -16 80 -5 49 -4 54 26 78 17 15 37 28 43 28 65 7 282 80 297 101 3 4 35 23
72 42 106 55 119 66 117 95 -4 37 10 90 34 134 15 27 36 44 76 63 31 14 79 37
106 50 28 13 66 27 85 30 19 4 44 15 55 25 11 10 33 22 48 28 35 13 110 14
102 2 -3 -5 -20 -9 -38 -9 -59 1 -62 -1 -41 -16 10 -8 16 -18 11 -22 -4 -4 -7
-2 -7 4 0 7 -10 12 -22 12 -17 0 -19 -3 -9 -9 9 -6 10 -10 2 -12 -6 -2 0 -16
14 -32 14 -15 21 -27 15 -27 -6 0 -8 -5 -3 -12 13 -22 12 -39 -3 -45 -12 -4
-12 -8 -2 -21 10 -12 10 -14 1 -8 -10 5 -11 -1 -6 -25 5 -26 3 -30 -8 -24 -7
5 -4 -4 9 -19 26 -34 28 -54 7 -63 -13 -5 -13 -8 5 -20 25 -17 26 -43 3 -44
-15 0 -14 -2 3 -11 12 -5 34 -38 50 -71 27 -58 74 -136 110 -182 8 -11 29 -42
47 -68 18 -28 36 -46 44 -43 7 3 12 2 11 -2 -1 -4 6 -22 16 -41 18 -34 19 -34
33 -15 15 18 15 18 9 -2 -8 -27 27 -91 54 -99 11 -3 22 -15 25 -26 5 -16 9
-18 21 -8 12 10 17 9 27 -1 10 -10 9 -12 -5 -7 -12 4 -18 1 -18 -9 0 -8 4 -13
9 -10 5 3 11 -1 15 -9 3 -8 13 -15 21 -15 9 0 14 -4 11 -9 -3 -5 3 -11 14 -14
13 -3 18 -11 14 -20 -3 -8 -1 -18 5 -22 6 -3 9 0 5 8 -3 8 3 17 13 21 16 7 15
9 -7 21 -14 8 -21 14 -16 15 5 0 -1 9 -13 20 l-23 19 24 6 c23 6 25 10 19 57
-1 3 -9 4 -18 2 -10 -2 -31 8 -48 22 -16 14 -25 24 -20 21 6 -3 17 -1 25 4 12
8 12 12 3 16 -7 2 -13 12 -13 21 0 8 -3 13 -6 9 -3 -3 -12 0 -19 6 -10 9 -10
15 -1 26 9 12 8 13 -3 6 -11 -6 -13 -4 -8 7 4 11 -3 20 -23 28 -25 10 -28 15
-19 31 5 11 6 19 2 18 -20 -3 -33 2 -33 14 0 7 -14 21 -31 31 -20 12 -28 23
-25 33 4 9 -2 23 -12 32 -9 9 -23 28 -30 43 -6 16 -16 28 -22 28 -6 0 -8 5 -5
10 3 6 1 10 -4 10 -6 0 -11 4 -11 9 0 5 9 7 20 4 11 -3 17 -9 14 -14 -3 -5 0
-9 6 -9 6 0 9 -4 6 -9 -8 -12 59 -62 70 -53 5 4 2 -1 -5 -10 -18 -24 4 -55 25
-37 19 16 18 4 -2 -15 -8 -9 -11 -16 -4 -16 6 0 34 -24 64 -53 49 -48 111
-104 149 -134 9 -7 51 -34 94 -60 43 -26 81 -52 85 -57 5 -7 8 -7 8 -1 1 6 8
-2 16 -17 8 -16 20 -28 27 -28 8 0 6 4 -3 10 -13 8 -12 10 3 10 11 0 17 -8 17
-21 0 -15 5 -19 15 -15 8 3 15 1 15 -5 0 -7 11 -8 29 -4 18 4 39 1 53 -6 13
-7 26 -12 31 -11 4 1 7 -5 7 -13 0 -20 -16 -19 -24 1 -4 10 -13 13 -27 9 -15
-5 -19 -4 -15 4 4 6 0 11 -8 11 -17 0 -17 -20 -1 -32 6 -4 18 -5 28 -2 10 3
19 -1 23 -10 3 -9 15 -16 26 -16 11 0 16 4 12 11 -7 12 33 3 52 -12 13 -10 94
-7 94 4 0 4 -4 7 -8 7 -5 0 -9 7 -9 15 0 9 6 14 13 11 8 -3 16 -1 19 4 4 6 1
10 -6 10 -7 0 -4 7 7 15 14 11 15 14 4 15 -13 0 -13 1 0 10 8 5 11 10 5 10 -5
0 -3 5 5 10 19 12 33 13 26 1 -4 -5 3 -7 14 -4 12 3 20 0 20 -6 0 -7 -4 -9
-10 -6 -6 3 -7 -1 -4 -9 3 -9 1 -16 -5 -16 -6 0 -11 5 -11 11 0 5 -5 7 -11 3
-8 -5 -7 -9 4 -15 12 -7 13 -16 5 -49 -6 -22 -13 -40 -17 -40 -3 0 -7 -10 -8
-22 -2 -13 -6 -46 -9 -74 -5 -45 -3 -54 20 -80 l27 -29 -6 50 c-3 28 -2 43 2
35 14 -27 38 -55 58 -66 11 -6 21 -21 23 -33 2 -14 11 -21 25 -22 14 0 8 -5
-17 -12 -37 -12 -39 -13 -22 -30 19 -18 31 -23 21 -8 -3 6 5 15 17 22 13 7 25
15 28 19 3 4 17 10 32 14 23 5 27 4 21 -11 -8 -23 1 -15 16 15 11 22 10 23
-16 20 -26 -3 -28 0 -29 33 -1 20 -5 42 -9 49 -5 9 -4 11 3 6 7 -4 12 -1 12 6
1 27 49 -48 56 -86 3 -23 15 -66 25 -98 9 -31 15 -66 12 -79 -5 -17 -3 -20 7
-14 9 6 11 4 5 -5 -11 -18 -55 32 -55 62 0 21 -1 21 -13 3 -11 -14 -16 -15
-22 -5 -5 8 -2 17 7 24 13 10 13 14 -2 38 -12 20 -20 24 -30 17 -12 -7 -12 -9
-1 -9 7 0 11 -6 8 -15 -4 -8 -2 -17 4 -20 15 -10 -1 -27 -18 -20 -14 5 -14 3
-2 -11 12 -15 11 -16 -11 -9 -14 4 -23 5 -20 2 14 -15 131 -77 144 -77 9 0 38
-13 64 -30 39 -24 61 -30 105 -30 31 0 59 5 62 10 3 6 14 10 23 10 15 0 15 -2
2 -11 -13 -9 -13 -10 0 -6 8 2 15 10 15 17 0 7 9 14 19 16 10 1 22 8 26 14 6
9 9 9 14 1 4 -6 12 -9 17 -6 15 10 10 -12 -7 -29 -14 -15 -14 -16 1 -16 8 0
20 11 25 25 12 32 20 32 14 0 l-4 -25 540 0 c354 0 548 4 561 10 18 10 19 27
19 546 0 448 -2 535 -14 540 -17 7 -156 -12 -215 -28 -42 -13 -61 -30 -137
-126 -37 -46 -93 -72 -156 -72 -50 0 -57 3 -116 55 -36 31 -78 58 -100 64 -83
21 -229 42 -393 56 -174 16 -219 28 -219 60 0 15 29 61 116 185 61 87 105 175
144 290 46 133 50 153 32 169 -12 12 -16 12 -23 0 -5 -8 -9 -9 -9 -3 0 7 -7
15 -16 18 -10 4 -13 2 -8 -7 6 -8 3 -8 -9 1 -9 8 -21 11 -27 7 -18 -11 -11
-25 13 -25 18 0 19 -2 7 -10 -8 -5 -25 -10 -38 -10 -13 0 -21 -4 -18 -9 3 -5
-1 -14 -8 -20 -12 -10 -13 -8 -9 8 5 19 -5 26 -30 22 -4 -1 -10 5 -13 14 -8
20 -155 168 -161 161 -3 -3 3 -25 12 -50 14 -36 15 -49 6 -60 -15 -18 -55 -14
-76 8 -12 12 -21 14 -29 7 -9 -7 -19 -6 -34 4 -16 12 -23 13 -29 3 -9 -14 -23
-17 -120 -25 -36 -3 -63 -1 -63 5 0 5 -30 8 -67 7 -71 -1 -83 5 -83 43 0 12
-4 22 -9 22 -4 0 -6 12 -3 26 l5 26 -49 -28 c-27 -15 -54 -35 -60 -43 -9 -12
-12 -10 -17 8 -3 11 -11 21 -17 21 -10 0 -10 -3 -1 -14 15 -18 -11 -30 -28
-13 -10 9 -12 9 -9 -3 2 -11 -6 -15 -30 -15 -18 -1 -38 -7 -43 -15 -8 -11 -9
-9 -5 10 3 14 3 19 0 13 -3 -7 -12 -13 -20 -13 -8 0 -17 -7 -21 -16 -4 -12 -8
-13 -14 -3 -6 10 -13 10 -34 1 -14 -7 -37 -12 -50 -12 -15 0 -24 -5 -23 -12 2
-9 -7 -12 -24 -10 -24 2 -28 -1 -28 -24 0 -24 3 -26 30 -22 35 5 35 5 14 -17
-16 -15 -16 -18 1 -33 13 -13 16 -13 10 -2 -6 11 -5 12 4 4 13 -12 5 -44 -11
-44 -5 0 -6 -10 -3 -21 5 -13 2 -25 -6 -31 -10 -7 -6 -8 14 -5 20 3 27 0 27
-12 0 -10 5 -22 12 -29 9 -9 9 -12 -1 -12 -7 0 -9 -5 -4 -12 8 -14 11 -25 20
-80 3 -21 11 -38 17 -38 7 0 8 -3 0 -8 -6 -4 -3 -14 10 -26 16 -16 18 -17 13
-3 -3 9 -2 17 3 17 18 0 14 -81 -4 -92 -7 -5 -7 -8 0 -8 5 0 15 5 22 12 9 9
12 8 12 -5 0 -9 -4 -17 -10 -17 -5 0 -10 -5 -10 -11 0 -6 -10 -19 -22 -30 -21
-17 -21 -18 -4 -19 16 0 16 -2 -5 -20 l-24 -19 25 -1 c20 0 22 -2 10 -10 -13
-8 -13 -13 -2 -31 11 -17 11 -20 0 -13 -10 6 -10 4 -2 -7 5 -8 9 -20 8 -26 -1
-7 -2 -20 -3 -30 -1 -13 -4 -13 -20 5 -10 12 -21 19 -25 15 -3 -3 -6 5 -7 18
0 19 -2 21 -7 6 -7 -16 -9 -16 -31 -1 -18 13 -20 18 -10 25 11 7 10 9 -3 9
-10 0 -18 5 -18 10 0 6 -10 11 -22 11 -17 1 -19 2 -5 6 9 2 17 8 17 13 0 14
-31 41 -41 34 -10 -6 -41 21 -33 29 3 3 13 3 22 0 14 -4 15 -3 2 6 -8 5 -11
13 -8 17 8 7 -34 44 -49 44 -20 0 -9 -30 11 -31 17 -1 18 -2 4 -6 -10 -2 -18
-11 -18 -19 0 -8 -5 -12 -10 -9 -6 4 -10 12 -9 18 4 30 -2 57 -12 57 -7 0 -8
-11 -4 -30 7 -34 6 -35 -27 -18 -24 13 -28 18 -28 41 0 9 -3 8 -9 -2 -5 -7
-13 -11 -17 -8 -5 3 -8 -23 -7 -56 2 -46 7 -65 20 -76 17 -12 16 -13 -5 -8
-15 4 -22 1 -19 -6 2 -7 12 -11 22 -9 14 3 17 -2 13 -22 -3 -14 -1 -23 3 -20
5 3 9 -4 9 -15 0 -22 -9 -30 -39 -36 -16 -3 -19 2 -19 26 1 34 -3 40 -30 42
-11 0 -20 4 -20 7 3 11 -26 60 -34 60 -5 0 -6 4 -3 10 3 5 -5 20 -18 32 -13
13 -29 32 -35 43 -10 17 -11 15 -8 -18 2 -21 1 -35 -2 -33 -6 7 -51 113 -62
149 -11 33 -4 253 10 339 5 35 10 89 10 120 0 53 2 58 25 64 20 5 25 12 25 38
l0 31 -26 -32 c-21 -27 -32 -33 -62 -33 -65 1 -162 113 -162 188 0 37 -32 70
-75 77 -19 3 -50 7 -68 10 -18 3 -74 25 -123 50 -49 25 -104 48 -122 51 -19 4
-78 -3 -141 -16 -118 -24 -135 -22 -272 29 -31 11 -89 24 -128 29 l-71 8 0
-923z m2116 385 c20 -18 46 -41 56 -50 10 -10 24 -18 32 -18 7 0 20 -8 27 -17
13 -16 12 -17 -4 -4 -15 12 -20 11 -37 -4 -10 -9 -23 -14 -28 -11 -6 3 -12 -1
-16 -9 -3 -8 -1 -17 4 -20 6 -4 10 -14 10 -23 0 -15 -2 -15 -10 -2 -9 13 -11
13 -20 0 -8 -13 -11 -13 -22 3 -9 11 -20 16 -31 11 -25 -9 -21 -17 20 -36 26
-12 40 -14 49 -7 16 13 34 4 34 -17 0 -11 4 -12 19 -4 14 7 21 6 24 -3 3 -9 7
-9 17 0 10 9 18 8 36 -4 22 -14 24 -14 25 3 0 14 2 15 6 4 12 -29 27 -38 38
-23 8 10 22 12 53 7 23 -4 42 -10 42 -15 0 -18 -80 -30 -138 -20 -64 11 -161
23 -207 25 -38 1 -55 12 -54 34 0 14 2 13 8 -3 8 -19 8 -19 20 3 10 18 9 22
-3 22 -8 0 -18 9 -21 20 -3 11 -14 20 -23 21 -10 0 -12 3 -5 6 10 3 10 7 0 18
-7 7 -16 10 -21 7 -5 -3 -5 1 0 9 5 8 7 22 6 32 -2 11 3 17 17 17 12 0 21 4
21 10 0 5 -8 7 -17 3 -14 -5 -13 -1 5 16 12 12 22 28 22 36 0 24 26 17 66 -17z
m-356 12 c0 -5 -5 -10 -11 -10 -5 0 -7 5 -4 10 3 6 8 10 11 10 2 0 4 -4 4 -10z
m440 -150 c0 -5 -7 -7 -15 -4 -8 4 -12 10 -9 15 6 11 24 2 24 -11z m-220 0 c0
-5 -5 -10 -11 -10 -5 0 -7 5 -4 10 3 6 8 10 11 10 2 0 4 -4 4 -10z m31 -70
c-8 -4 -21 -5 -30 -2 -12 5 -10 8 9 12 29 8 40 3 21 -10z m117 -94 c162 -50
192 -56 248 -54 45 2 59 0 59 -11 0 -21 -55 -37 -66 -20 -5 8 -9 9 -9 3 0 -6
-7 -11 -15 -11 -8 0 -15 4 -15 9 0 5 -5 6 -10 3 -6 -4 -18 -1 -26 6 -12 10
-20 10 -34 1 -11 -6 -42 -12 -71 -13 -47 -2 -49 -3 -27 -15 12 -7 32 -11 43
-8 16 4 17 3 5 -5 -13 -10 -8 -15 13 -12 4 0 7 -4 7 -9 0 -7 -20 -10 -50 -7
-39 2 -50 0 -50 -12 0 -11 -3 -12 -11 -4 -14 14 -49 5 -49 -13 0 -8 5 -14 10
-14 6 0 11 -15 11 -32 1 -24 3 -27 6 -10 5 25 23 30 23 7 0 -8 9 -15 20 -15
11 0 19 -5 17 -11 -2 -13 32 -22 91 -23 23 0 42 -4 42 -8 0 -5 20 -7 46 -6 33
1 48 6 55 20 6 11 13 17 16 14 3 -2 17 6 32 20 24 22 27 23 39 7 6 -9 12 -13
12 -8 0 5 5 4 12 -3 18 -18 26 -15 26 13 0 14 -4 25 -9 25 -5 0 -9 -4 -9 -10
0 -5 -7 -10 -16 -10 -8 0 -13 4 -9 9 3 5 -5 17 -17 25 l-22 16 30 28 c16 15
42 28 56 30 l27 3 -16 -41 c-10 -26 -13 -44 -7 -48 5 -4 9 -17 8 -29 -1 -13 4
-23 9 -23 8 0 8 -3 1 -10 -8 -8 -19 -7 -37 1 -20 9 -29 8 -48 -5 -18 -12 -19
-16 -7 -16 9 0 18 6 21 13 3 9 8 9 18 -2 9 -9 9 -11 2 -7 -7 4 -13 3 -13 -2 0
-6 6 -12 14 -15 7 -3 16 -17 18 -32 4 -19 2 -25 -8 -21 -18 7 -18 1 1 -18 14
-13 13 -15 -4 -13 -11 0 -17 5 -14 10 7 12 -50 -25 -59 -38 -5 -6 -8 -3 -8 6
0 18 -26 33 -41 23 -5 -3 -9 -11 -9 -17 0 -9 2 -9 8 0 5 8 13 9 22 3 11 -7 12
-10 2 -10 -8 0 -10 -5 -5 -12 12 -20 12 -39 1 -31 -8 4 -9 -4 -5 -25 4 -17 2
-34 -3 -37 -6 -3 -7 1 -4 10 5 12 2 14 -12 8 -16 -6 -17 -4 -7 8 10 12 8 15
-7 16 -12 1 -17 -3 -14 -11 6 -14 -22 -30 -37 -21 -5 4 -6 -1 -3 -9 4 -11 0
-13 -15 -9 -13 3 -18 11 -14 21 4 14 3 15 -6 2 -5 -8 -20 -15 -33 -15 -17 0
-24 -7 -27 -25 -3 -23 -4 -24 -12 -5 -6 17 -8 17 -8 3 -1 -10 -9 -18 -18 -18
-14 0 -15 2 -5 9 11 7 11 9 -2 14 -10 4 -16 1 -16 -8 0 -8 -4 -15 -10 -15 -5
0 -7 7 -4 15 5 12 0 14 -25 9 -21 -5 -31 -3 -31 6 0 7 -7 10 -16 6 -13 -5 -15
-1 -10 18 4 17 1 26 -11 30 -22 9 -31 -3 -13 -15 13 -9 13 -10 0 -6 -8 2 -16
16 -18 30 -2 15 -7 25 -11 22 -5 -2 -7 11 -6 29 1 30 -1 33 -16 23 -10 -6 -16
-13 -14 -17 2 -3 -8 -19 -21 -35 -13 -17 -24 -25 -24 -19 0 5 5 15 12 22 12
12 2 17 -27 13 -5 -1 2 9 16 21 15 13 30 34 34 48 7 22 6 23 -9 11 -9 -7 -16
-21 -17 -30 0 -9 -3 -11 -5 -4 -3 7 -13 9 -22 6 -10 -4 -7 2 7 14 19 15 23 25
17 46 -4 17 -13 27 -24 27 -16 -1 -16 -1 1 -11 38 -22 8 -62 -49 -64 -34 -1
-46 16 -22 31 7 4 8 3 4 -4 -5 -8 0 -12 12 -12 23 0 36 36 16 44 -8 3 -11 12
-8 21 5 11 2 14 -10 9 -9 -3 -16 -2 -16 4 0 5 -12 7 -27 4 -16 -2 -25 -2 -22
2 3 3 18 7 32 8 15 1 29 9 32 16 3 10 0 12 -10 8 -10 -3 -15 1 -15 13 0 15 5
18 23 14 12 -3 27 -12 33 -19 6 -8 19 -12 28 -8 19 7 21 20 4 30 -7 4 -8 3 -4
-4 4 -7 1 -12 -8 -12 -9 0 -17 6 -17 13 -1 6 -2 17 -4 22 -1 6 -3 18 -3 28 -1
9 -10 17 -19 18 -15 0 -15 2 2 9 l20 9 -20 0 c-16 1 -17 3 -6 10 12 8 12 12 2
24 -10 13 -9 19 5 35 9 11 23 18 30 15 8 -3 14 -1 14 5 0 6 15 5 37 -3 21 -7
40 -10 43 -6 7 11 42 22 36 12 -3 -4 4 -17 16 -27 21 -18 21 -18 15 0 -7 16
-3 18 28 12 23 -5 35 -3 35 4 0 6 -4 9 -9 5 -5 -3 -13 0 -16 6 -4 5 -14 8 -22
5 -8 -3 -11 -2 -8 3 3 5 -3 12 -12 14 -13 3 -12 5 5 6 13 0 44 -5 70 -13z
m649 -8 c-2 -7 0 -21 5 -32 7 -13 7 -16 -1 -12 -6 4 -11 0 -11 -11 -1 -15 -2
-16 -9 -3 -11 18 -3 70 11 70 5 0 8 -6 5 -12z m-27 -76 c0 -15 -2 -15 -10 -2
-8 12 -10 12 -10 1 0 -8 -3 -12 -6 -8 -4 3 -4 13 0 22 7 20 26 10 26 -13z
m-481 -63 c-15 -9 -32 -2 -24 11 3 5 13 6 21 3 12 -4 13 -8 3 -14z m-828 -92
c-10 -9 -11 -8 -5 6 3 10 9 15 12 12 3 -3 0 -11 -7 -18z m105 -43 c2 -28 1
-28 -15 4 -9 17 -9 22 1 22 7 0 14 -12 14 -26z m-39 10 c-3 -3 -12 -4 -19 -1
-8 3 -5 6 6 6 11 1 17 -2 13 -5z m357 -33 c4 -5 -3 -7 -14 -4 -23 6 -26 13 -6
13 8 0 17 -4 20 -9z m752 -61 c-2 -22 1 -27 10 -19 9 8 11 5 8 -8 -3 -10 -15
-19 -29 -19 -23 -2 -25 9 -6 41 3 6 6 13 7 18 6 30 12 21 10 -13z m-736 0 c12
-8 11 -10 -7 -10 -13 0 -23 5 -23 10 0 13 11 13 30 0z m-415 -50 c-3 -5 0 -10
7 -10 9 0 10 -3 2 -8 -20 -13 -2 -78 18 -66 9 5 9 3 -1 -9 -8 -10 -9 -17 -3
-17 6 0 14 5 17 10 4 6 11 8 16 4 5 -3 7 -10 3 -15 -3 -5 -10 -7 -15 -4 -5 4
-9 0 -9 -8 0 -10 7 -13 20 -10 22 6 28 -12 8 -21 -7 -3 -1 -3 15 0 27 6 39 -9
15 -20 -9 -4 -8 -5 2 -5 30 2 41 -1 35 -11 -9 -14 17 -50 36 -50 9 0 19 -6 22
-13 4 -10 -3 -13 -21 -12 -38 3 -42 4 -41 13 4 21 -3 31 -16 26 -9 -4 -15 0
-15 10 0 9 -6 16 -14 16 -8 0 -17 7 -20 16 -3 8 -10 13 -15 9 -5 -3 -12 -1
-16 5 -3 5 0 10 7 10 9 0 9 3 -2 10 -8 5 -15 15 -15 21 0 19 -23 22 -27 5 -2
-11 -6 -9 -14 9 -8 15 -8 23 -2 22 6 -1 13 4 16 12 3 9 0 11 -8 6 -9 -5 -10
-2 -5 15 5 15 4 20 -4 16 -6 -4 -11 0 -11 9 0 9 4 14 9 11 5 -3 11 3 14 14 3
11 8 20 12 20 3 0 3 -4 0 -10z m1182 -65 c65 -8 226 -96 202 -110 -7 -5 -14
-4 -17 3 -2 7 -12 12 -22 12 -10 0 -22 4 -25 10 -7 12 -88 51 -159 77 -27 10
-51 24 -54 31 -3 10 2 10 21 -3 14 -9 38 -18 54 -20z m-1167 -165 c0 -5 -2
-10 -4 -10 -3 0 -8 5 -11 10 -3 6 -1 10 4 10 6 0 11 -4 11 -10z m815 -137 c-8
-27 -15 -51 -15 -55 0 -5 -7 -8 -15 -8 -8 0 -14 3 -14 8 3 20 -2 25 -12 12 -9
-13 -10 -13 -6 0 2 8 10 15 18 16 30 2 33 6 12 14 -13 5 -23 15 -23 22 0 9 3
9 12 0 17 -17 28 -15 28 7 0 16 5 21 27 30 1 1 -4 -20 -12 -46z m775 12 c0 -8
4 -15 10 -15 5 0 13 -18 16 -40 4 -22 10 -37 15 -35 4 3 7 -9 6 -27 l-1 -33
-10 28 c-5 15 -13 27 -17 27 -4 0 -5 9 -2 19 3 11 -4 28 -16 40 -22 22 -28 51
-11 51 6 0 10 -7 10 -15z m-1476 -50 c-4 -8 -11 -12 -16 -9 -6 4 -5 10 3 15
19 12 19 11 13 -6z m-87 -131 c-3 -3 -12 -4 -19 -1 -8 3 -5 6 6 6 11 1 17 -2
13 -5z m630 0 c-3 -3 -12 -4 -19 -1 -8 3 -5 6 6 6 11 1 17 -2 13 -5z m990 -26
c-3 -8 -6 -5 -6 6 -1 11 2 17 5 13 3 -3 4 -12 1 -19z m-260 -15 c2 -6 -3 -13
-11 -16 -11 -4 -13 -1 -9 10 5 12 3 14 -7 8 -9 -5 -11 -4 -6 4 9 14 28 10 33
-6z m132 -5 c13 -8 30 -8 61 0 40 10 70 7 70 -7 0 -3 -37 -7 -83 -9 -70 -2
-86 1 -107 18 l-25 20 33 -5 c18 -3 41 -11 51 -17z m-1635 -4 c21 -8 21 -24 0
-24 -8 0 -13 -3 -11 -7 7 -11 -59 -10 -70 1 -4 5 2 5 15 2 17 -6 22 -3 23 11
0 10 3 13 5 6 3 -7 12 -9 20 -6 13 5 13 7 2 14 -15 10 -6 12 16 3z m1226 -19
c5 3 15 -4 23 -15 14 -20 87 -36 87 -19 0 13 27 11 36 -3 5 -8 2 -9 -9 -5 -10
3 -17 2 -17 -4 0 -7 -15 -9 -37 -6 -50 6 -73 16 -73 32 0 14 -17 15 -36 2 -12
-7 -24 0 -24 14 0 5 7 6 15 3 9 -4 15 0 16 7 0 11 2 11 6 1 2 -6 9 -10 13 -7z
m197 9 c-3 -3 -12 -4 -19 -1 -8 3 -5 6 6 6 11 1 17 -2 13 -5z m-7 -41 c0 -19
-13 -9 -16 12 -1 8 2 13 7 9 5 -3 9 -12 9 -21z m-1440 -3 c0 -5 -5 -10 -11
-10 -5 0 -7 5 -4 10 3 6 8 10 11 10 2 0 4 -4 4 -10z m7 -44 c0 -8 -6 -12 -15
-9 -11 5 -11 7 0 14 7 5 13 9 14 9 0 0 1 -6 1 -14z m1747 -41 c11 -8 16 -15
10 -15 -5 0 -18 7 -28 15 -11 8 -16 15 -10 15 5 0 18 -7 28 -15z m-1794 -35
c0 -5 -5 -10 -11 -10 -5 0 -7 5 -4 10 3 6 8 10 11 10 2 0 4 -4 4 -10z m1810
-6 c0 -8 -5 -12 -10 -9 -6 4 -8 11 -5 16 9 14 15 11 15 -7z"/>
<path d="M2071 1694 c0 -11 3 -14 6 -6 3 7 2 16 -1 19 -3 4 -6 -2 -5 -13z"/>
<path d="M1880 1433 c0 -4 5 -15 10 -23 8 -13 10 -13 10 2 0 9 -4 20 -10 23
-5 3 -10 3 -10 -2z"/>
<path d="M2030 1316 c0 -9 5 -16 10 -16 6 0 10 4 10 9 0 6 -4 13 -10 16 -5 3
-10 -1 -10 -9z"/>
<path d="M2485 1291 c-7 -12 12 -24 25 -16 11 7 4 25 -10 25 -5 0 -11 -4 -15
-9z"/>
<path d="M1890 1215 c7 -9 15 -13 17 -11 7 7 -7 26 -19 26 -6 0 -6 -6 2 -15z"/>
<path d="M1900 1160 c0 -5 5 -10 10 -10 6 0 10 5 10 10 0 6 -4 10 -10 10 -5 0
-10 -4 -10 -10z"/>
<path d="M2091 1064 c0 -11 3 -14 6 -6 3 7 2 16 -1 19 -3 4 -6 -2 -5 -13z"/>
<path d="M2030 1035 c0 -8 4 -15 8 -15 5 0 9 7 9 15 0 8 -4 15 -9 15 -4 0 -8
-7 -8 -15z"/>
<path d="M2331 1033 c-1 -6 -4 -20 -7 -30 -5 -17 -5 -17 6 0 6 10 9 23 6 30
-3 9 -5 9 -5 0z"/>
<path d="M2197 983 c-4 -3 -7 -11 -7 -17 0 -6 5 -5 12 2 6 6 9 14 7 17 -3 3
-9 2 -12 -2z"/>
<path d="M1838 2188 c5 -5 16 -8 23 -6 8 3 3 7 -10 11 -17 4 -21 3 -13 -5z"/>
<path d="M2973 1913 c-8 -16 -9 -32 -3 -42 7 -13 10 -11 15 11 11 42 2 63 -12
31z"/>
<path d="M1580 1773 c0 -7 -4 -13 -8 -13 -5 0 -9 -16 -10 -36 -1 -20 -4 -45
-7 -55 -4 -11 -2 -19 6 -19 8 0 10 -13 6 -45 -4 -27 -3 -45 3 -45 6 0 10 -11
10 -25 0 -14 11 -43 25 -65 15 -23 25 -55 26 -77 0 -30 2 -34 9 -18 6 16 11 6
21 -43 11 -53 16 -62 31 -59 11 3 18 0 18 -10 0 -19 32 -13 37 7 3 11 2 12 -4
3 -6 -9 -15 2 -28 35 -11 26 -28 63 -37 82 -10 19 -18 40 -18 46 0 7 -6 15
-12 18 -10 5 -10 7 0 12 6 3 12 15 12 25 0 11 -4 18 -9 14 -14 -8 -34 33 -39
80 -3 22 -5 76 -5 121 -1 59 -4 81 -14 81 -7 0 -13 -6 -13 -14z"/>
<path d="M928 1489 c-10 -5 -18 -15 -18 -21 0 -6 7 -5 17 3 14 12 16 12 11 -1
-3 -8 -14 -15 -26 -14 -13 0 -18 -4 -15 -13 8 -20 19 -16 42 13 32 40 26 55
-11 33z"/>
<path d="M1050 1480 c0 -5 5 -10 11 -10 5 0 7 5 4 10 -3 6 -8 10 -11 10 -2 0
-4 -4 -4 -10z"/>
<path d="M1065 1441 c-3 -5 -2 -12 3 -15 5 -3 9 1 9 9 0 17 -3 19 -12 6z"/>
<path d="M868 1413 c7 -3 16 -2 19 1 4 3 -2 6 -13 5 -11 0 -14 -3 -6 -6z"/>
<path d="M1595 1400 c-3 -6 1 -7 9 -4 18 7 21 14 7 14 -6 0 -13 -4 -16 -10z"/>
<path d="M1462 1379 c2 -7 10 -15 17 -17 8 -3 12 1 9 9 -2 7 -10 15 -17 17 -8
3 -12 -1 -9 -9z"/>
<path d="M1457 1342 c-9 -2 -15 -8 -12 -13 8 -12 45 -12 45 0 0 13 -12 18 -33
13z"/>
<path d="M1505 1331 c-3 -5 -1 -12 4 -15 5 -3 11 1 15 9 6 16 -9 21 -19 6z"/>
<path d="M1377 1270 c3 -11 7 -20 9 -20 2 0 4 9 4 20 0 11 -4 20 -9 20 -5 0
-7 -9 -4 -20z"/>
<path d="M1670 1190 c0 -5 5 -10 10 -10 6 0 10 5 10 10 0 6 -4 10 -10 10 -5 0
-10 -4 -10 -10z"/>
<path d="M1411 1074 c0 -11 3 -14 6 -6 3 7 2 16 -1 19 -3 4 -6 -2 -5 -13z"/>
<path d="M710 1062 c0 -11 9 -27 20 -37 16 -14 17 -21 8 -39 -10 -18 -9 -19 3
-9 12 10 15 8 16 -10 1 -12 7 -23 13 -25 5 -2 8 -8 4 -13 -3 -5 4 -9 16 -9 12
0 18 -4 15 -10 -3 -5 2 -10 12 -11 10 0 13 -3 6 -6 -7 -2 -13 -10 -13 -16 0
-5 3 -8 6 -4 6 6 17 -3 41 -34 10 -13 10 -16 -2 -16 -8 0 -12 5 -9 11 3 6 -5
0 -17 -14 -13 -15 -20 -18 -16 -8 3 9 0 19 -7 21 -9 4 -11 -2 -8 -19 3 -16 9
-23 18 -20 8 3 21 9 31 13 11 4 14 3 9 -5 -11 -19 3 -14 27 9 l22 20 3 -20 c2
-12 8 -21 13 -21 5 0 9 -4 9 -10 0 -5 -7 -7 -16 -3 -11 4 -15 2 -13 -6 3 -7 8
-12 12 -11 13 1 38 -28 35 -41 -2 -7 6 -17 18 -23 11 -6 19 -18 17 -26 -3 -10
0 -9 7 3 6 9 16 17 21 17 6 0 8 -4 5 -8 -3 -5 4 -23 14 -40 11 -18 16 -31 11
-29 -5 1 -8 -1 -7 -4 0 -3 -5 -13 -12 -22 -11 -13 -10 -17 4 -25 16 -9 16 -12
4 -27 -7 -9 -9 -15 -4 -14 5 1 18 0 29 -1 16 -1 15 -3 -7 -12 -29 -10 -38 -28
-15 -28 8 0 7 -4 -3 -10 -13 -9 -12 -12 4 -25 23 -17 14 -20 -15 -5 -11 7 -19
7 -19 1 0 -5 6 -11 13 -14 6 -2 9 -7 5 -11 -7 -8 -88 34 -88 46 0 4 8 4 17 1
12 -5 15 -2 10 10 -4 12 -2 15 11 11 14 -5 14 -4 3 4 -13 9 -13 13 -1 29 13
16 12 15 -8 -1 -23 -20 -23 -20 -29 3 -4 18 -11 21 -29 17 -18 -5 -22 -3 -18
9 4 8 1 15 -6 15 -6 0 -8 -4 -5 -10 8 -12 -5 -13 -23 -1 -9 5 -13 22 -11 42 3
30 1 34 -18 32 -17 -2 -21 2 -18 19 3 11 1 18 -2 14 -12 -12 -11 -55 1 -53 6
1 10 -4 8 -11 -1 -8 2 -11 8 -7 5 3 10 -3 10 -14 0 -11 8 -25 18 -30 13 -8 14
-10 2 -11 -10 0 -7 -5 8 -16 12 -8 20 -19 17 -24 -3 -4 7 -18 22 -30 16 -12
22 -19 16 -15 -9 4 -11 1 -7 -9 7 -17 24 -22 24 -7 0 5 11 4 25 -2 14 -7 25
-15 25 -19 0 -12 -14 -10 -28 4 -6 6 -15 8 -19 4 -4 -4 0 -12 10 -17 9 -6 15
-14 13 -18 -3 -5 6 -19 19 -31 14 -13 25 -20 25 -16 0 4 -10 16 -22 27 -22 17
-15 25 15 20 5 -1 6 3 2 9 -3 5 -2 10 3 10 16 0 22 -13 12 -25 -8 -9 -2 -16
20 -25 30 -12 42 -40 18 -40 -9 0 -8 -4 2 -10 22 -14 33 -12 26 5 -6 18 -5 18
28 5 17 -6 26 -6 26 0 0 6 -6 10 -14 10 -8 0 -18 4 -21 10 -4 6 5 7 23 4 26
-5 29 -3 27 18 -4 38 -5 39 -16 32 -8 -5 -9 -2 -2 10 38 68 -92 378 -201 479
-17 16 -30 33 -28 39 1 5 -1 7 -6 4 -5 -3 -44 33 -86 79 -43 47 -82 85 -87 85
-5 0 -9 -8 -9 -18z m319 -357 c2 -3 -12 -5 -32 -5 -20 0 -38 4 -41 9 -5 8 64
4 73 -4z m-144 -185 c3 -6 -1 -7 -9 -4 -18 7 -21 14 -7 14 6 0 13 -4 16 -10z
m43 -15 c11 -23 10 -24 -8 -13 -11 7 -20 18 -20 25 0 22 16 14 28 -12z m162
-61 c0 -2 -9 0 -20 6 -11 6 -20 13 -20 16 0 2 9 0 20 -6 11 -6 20 -13 20 -16z
m-35 -46 c5 -4 0 -6 -13 -5 -22 1 -27 8 -15 20 3 4 9 4 12 0 3 -4 10 -11 16
-15z m-12 -32 c4 -10 1 -13 -9 -9 -15 6 -19 23 -5 23 5 0 11 -7 14 -14z m78
-3 c13 -15 12 -15 -8 -4 -24 12 -29 21 -14 21 5 0 15 -7 22 -17z"/>
<path d="M1352 1016 c7 -8 15 -12 17 -11 5 6 -10 25 -20 25 -5 0 -4 -6 3 -14z"/>
<path d="M1540 768 c0 -12 1 -19 3 -17 1 2 9 12 16 22 12 14 11 17 -3 17 -10
0 -16 -8 -16 -22z"/>
<path d="M1550 711 c0 -11 21 -19 38 -14 20 8 14 19 -13 21 -14 1 -25 -2 -25
-7z"/>
<path d="M1640 710 c8 -5 20 -10 25 -10 6 0 3 5 -5 10 -8 5 -19 10 -25 10 -5
0 -3 -5 5 -10z"/>
<path d="M1000 650 c0 -5 5 -10 11 -10 5 0 7 5 4 10 -3 6 -8 10 -11 10 -2 0
-4 -4 -4 -10z"/>
<path d="M1309 653 c-1 -5 -1 -11 0 -15 0 -4 -6 -5 -14 -2 -8 4 -15 2 -15 -4
0 -9 31 -27 34 -20 1 2 8 11 15 21 12 15 12 17 -4 11 -13 -5 -16 -4 -11 4 4 7
5 12 2 12 -3 0 -7 -3 -7 -7z"/>
<path d="M965 640 c-3 -5 -1 -10 4 -10 6 0 11 5 11 10 0 6 -2 10 -4 10 -3 0
-8 -4 -11 -10z"/>
<path d="M1415 620 c-3 -6 1 -7 9 -4 18 7 21 14 7 14 -6 0 -13 -4 -16 -10z"/>
<path d="M1153 605 c0 -8 4 -15 9 -15 4 0 8 4 8 9 0 6 -4 12 -8 15 -5 3 -9 -1
-9 -9z"/>
<path d="M1185 610 c-3 -6 1 -7 9 -4 18 7 21 14 7 14 -6 0 -13 -4 -16 -10z"/>
<path d="M1580 606 c0 -2 7 -6 15 -10 8 -3 15 -1 15 4 0 6 -7 10 -15 10 -8 0
-15 -2 -15 -4z"/>
<path d="M901 573 c-1 -17 16 -25 25 -12 4 7 3 9 -4 5 -5 -3 -13 0 -15 6 -4 9
-6 10 -6 1z"/>
<path d="M1905 540 c3 -5 8 -10 11 -10 2 0 4 5 4 10 0 6 -5 10 -11 10 -5 0 -7
-4 -4 -10z"/>
<path d="M1220 524 c-17 -9 -20 -14 -9 -14 9 0 22 7 29 15 15 18 13 18 -20 -1z"/>
<path d="M1621 498 c1 -18 2 -19 6 -5 2 9 9 14 15 11 7 -4 8 -2 4 4 -12 20
-26 13 -25 -10z"/>
<path d="M2020 491 c-22 -7 -21 -8 15 -13 45 -6 57 -2 35 12 -17 11 -16 11
-50 1z"/>
<path d="M720 472 c0 -7 0 -14 0 -17 0 -3 3 -4 6 -2 3 1 10 -6 15 -15 12 -22
26 -23 26 -3 0 8 -3 13 -5 10 -3 -2 -13 5 -23 17 -11 11 -19 16 -19 10z"/>
<path d="M966 462 c-3 -6 -1 -14 5 -17 14 -9 20 -2 10 14 -6 8 -11 9 -15 3z"/>
<path d="M2098 463 c7 -3 16 -2 19 1 4 3 -2 6 -13 5 -11 0 -14 -3 -6 -6z"/>
<path d="M1660 446 c0 -2 7 -7 16 -10 8 -3 12 -2 9 4 -6 10 -25 14 -25 6z"/>
<path d="M2080 440 c20 -13 33 -13 25 0 -3 6 -14 10 -23 10 -15 0 -15 -2 -2
-10z"/>
<path d="M1739 397 c31 -40 136 -95 166 -87 3 1 16 -5 28 -13 12 -7 33 -16 47
-20 49 -12 -7 20 -113 64 -56 24 -111 50 -122 58 -18 15 -19 15 -6 -2z"/>
<path d="M1180 341 c0 -6 4 -13 10 -16 6 -3 7 1 4 9 -7 18 -14 21 -14 7z"/>
<path d="M1010 330 c0 -6 7 -10 15 -10 8 0 15 2 15 4 0 2 -7 6 -15 10 -8 3
-15 1 -15 -4z"/>
<path d="M2180 260 c0 -27 3 -30 29 -30 16 0 41 -4 55 -10 18 -6 26 -6 26 1 0
15 -26 39 -34 32 -3 -4 -6 -2 -6 4 0 10 -42 33 -60 33 -6 0 -10 -13 -10 -30z"/>
<path d="M2174 168 c-3 -4 4 -11 13 -17 10 -6 15 -11 11 -11 -4 0 4 -12 19
-27 24 -26 43 -61 49 -91 4 -22 8 -23 95 -20 l84 3 -42 21 c-23 12 -40 17 -37
12 4 -6 -5 -3 -18 6 -14 9 -28 13 -31 9 -4 -3 -7 -3 -7 0 0 4 15 13 33 20 30
13 31 14 10 21 -18 6 -23 15 -23 41 0 19 -4 37 -10 40 -5 3 -10 2 -10 -2 0 -5
-9 -9 -20 -10 -11 -1 -20 4 -20 10 0 7 -4 6 -10 -3 -7 -10 -13 -11 -17 -5 -9
12 -62 14 -69 3z"/>
<path d="M2486 113 c-6 -14 -5 -15 5 -6 7 7 10 15 7 18 -3 3 -9 -2 -12 -12z"/>
</g>
</svg>
